<svg xmlns="http://www.w3.org/2000/svg" width="1536" height="1024" viewBox="0 0 1536 1024"><rect width="1536" height="1024" fill="#a6a6a6"/><text x="256" y="160" text-anchor="middle" font-family="Arial" font-size="22" fill="#303840">FRONT</text><rect x="56" y="590" width="400" height="77.5" fill="none" stroke="#687078" stroke-dasharray="3 5"/><path d="M 56 720 H 456" stroke="#687078" fill="none"/><path d="M 56 780 v -5 m 0 5 h 5 v -5" stroke="#303840" fill="none"/><text x="74" y="786" font-family="Arial" font-size="16">1 m</text><text x="768" y="160" text-anchor="middle" font-family="Arial" font-size="22" fill="#303840">SIDE</text><rect x="568" y="590" width="400" height="77.5" fill="none" stroke="#687078" stroke-dasharray="3 5"/><path d="M 568 720 H 968" stroke="#687078" fill="none"/><path d="M 568 780 v -5 m 0 5 h 5 v -5" stroke="#303840" fill="none"/><text x="586" y="786" font-family="Arial" font-size="16">1 m</text><text x="1280" y="160" text-anchor="middle" font-family="Arial" font-size="22" fill="#303840">TOP</text><polygon points="1480.000,500.000 1421.421,641.421 1280.000,700.000 1138.579,641.421 1080.000,500.000 1138.579,358.579 1280.000,300.000 1421.421,358.579" stroke="#283848" stroke-width="1" fill="none"/><polygon points="1410.000,500.000 1371.924,591.924 1280.000,630.000 1188.076,591.924 1150.000,500.000 1188.076,408.076 1280.000,370.000 1371.924,408.076" stroke="#283848" stroke-width="1" fill="none"/><path d="M 1080 780 v -5 m 0 5 h 5 v -5" stroke="#303840" fill="none"/><text x="1098" y="786" font-family="Arial" font-size="16">1 m</text></svg>