<svg xmlns="http://www.w3.org/2000/svg" width="1536" height="1024" viewBox="0 0 1536 1024"><rect width="1536" height="1024" fill="#a6a6a6"/><text x="256" y="125" text-anchor="middle" font-family="Arial" font-size="24" fill="#303840">FRONT</text><path d="M216 930 v-8 m0 8 h80 v-8" fill="none" stroke="#394958" stroke-width="2"/><text x="256" y="958" text-anchor="middle" font-family="Arial" font-size="18">1 m</text><text x="768" y="125" text-anchor="middle" font-family="Arial" font-size="24" fill="#303840">SIDE</text><path d="M728 930 v-8 m0 8 h80 v-8" fill="none" stroke="#394958" stroke-width="2"/><text x="768" y="958" text-anchor="middle" font-family="Arial" font-size="18">1 m</text><text x="1280" y="125" text-anchor="middle" font-family="Arial" font-size="24" fill="#303840">TOP</text><path d="M1240 930 v-8 m0 8 h80 v-8" fill="none" stroke="#394958" stroke-width="2"/><text x="1280" y="958" text-anchor="middle" font-family="Arial" font-size="18">1 m</text><path d="M76 850 V370 L256 274 L436 370 V850 Z" fill="#b6a182" stroke="#394958" stroke-width="2"/><path d="M76 370 L256 274 L436 370" fill="none" stroke="#394958" stroke-width="5"/><rect x="132" y="510.0" width="72" height="88" fill="#576879" stroke="#394958" stroke-width="5"/><path d="M168 510.0 V598.0" fill="none" stroke="#394958" stroke-width="4"/><rect x="132" y="386.0" width="72" height="88" fill="#576879" stroke="#394958" stroke-width="5"/><path d="M168 386.0 V474.0" fill="none" stroke="#394958" stroke-width="4"/><rect x="308" y="510.0" width="72" height="88" fill="#576879" stroke="#394958" stroke-width="5"/><path d="M344 510.0 V598.0" fill="none" stroke="#394958" stroke-width="4"/><rect x="308" y="386.0" width="72" height="88" fill="#576879" stroke="#394958" stroke-width="5"/><path d="M344 386.0 V474.0" fill="none" stroke="#394958" stroke-width="4"/><rect x="100" y="682" width="160" height="120" fill="#576879" stroke="#394958" stroke-width="5"/><rect x="105" y="687.0" width="150" height="17" fill="#657789" stroke="#394958" stroke-width="1"/><rect x="105" y="705.5" width="150" height="17" fill="#657789" stroke="#394958" stroke-width="1"/><rect x="105" y="724.0" width="150" height="17" fill="#657789" stroke="#394958" stroke-width="1"/><rect x="105" y="742.5" width="150" height="17" fill="#657789" stroke="#394958" stroke-width="1"/><rect x="105" y="761.0" width="150" height="17" fill="#657789" stroke="#394958" stroke-width="1"/><rect x="105" y="779.5" width="150" height="17" fill="#657789" stroke="#394958" stroke-width="1"/><path d="M107 793 L251 691" fill="none" stroke="#394958" stroke-width="9"/><path d="M107 691 L251 793" fill="none" stroke="#394958" stroke-width="9"/><rect x="320" y="682" width="80" height="168" fill="#657789" stroke="#394958" stroke-width="5"/><path d="M336 685 V847" fill="none" stroke="#394958" stroke-width="1"/><path d="M352 685 V847" fill="none" stroke="#394958" stroke-width="1"/><path d="M368 685 V847" fill="none" stroke="#394958" stroke-width="1"/><path d="M384 685 V847" fill="none" stroke="#394958" stroke-width="1"/><rect x="100" y="617.2" width="312" height="28.8" fill="#657789" stroke="#394958" stroke-width="3"/><path d="M83 509 l14 -4 10 9 -4 20 -21 -3 Z" fill="#8d736b" stroke="#394958" stroke-width="1"/><path d="M265 405 l14 -4 10 9 -4 20 -21 -3 Z" fill="#8d736b" stroke="#394958" stroke-width="1"/><path d="M411 560 l14 -4 10 9 -4 20 -21 -3 Z" fill="#8d736b" stroke="#394958" stroke-width="1"/><path d="M280 779 l14 -4 10 9 -4 20 -21 -3 Z" fill="#8d736b" stroke="#394958" stroke-width="1"/><rect x="708" y="274" width="120" height="576" fill="#b6a182" stroke="#394958" stroke-width="2"/><path d="M708 370 H828" fill="none" stroke="#394958" stroke-width="4"/><rect x="1100" y="430" width="360" height="120" fill="#657789" stroke="#394958" stroke-width="2"/><path d="M1280 430 V550" fill="none" stroke="#394958" stroke-width="3"/></svg>